<svg xmlns="http://www.w3.org/2000/svg" width="41" height="24" fill="none" viewBox="0 0 41 24"><path fill="#ffc250" d="M23.679 20.29c6.423 1.998 16.797-.043 16.89-8.941.092-8.898-10.98-3.598-10.98-3.598Z"/><path fill="#ffd064" d="M37.445 6.356c-4.483-.768-7.887 5.174-11.654 11.373s-13.576 8.656-19.844 3.443C-.32 15.959-2.973 6.829 4.723 1.384 12.418-4.062 17.222 8.3 23.847 8.64s6.673-4.586 13.598-2.285"/><ellipse cx="1.967" cy="1.968" fill="#ffe19d" rx="1.967" ry="1.968" transform="matrix(-1 0 0 1 7.34 9.658)"/><circle cx="1.476" cy="1.476" r="1.476" fill="#ffe19d" transform="matrix(-1 0 0 1 10.618 11.626)"/><circle cx="1.148" cy="1.148" r="1.148" fill="#ffe19d" transform="matrix(-1 0 0 1 7.667 13.922)"/></svg>