<svg xmlns="http://www.w3.org/2000/svg" width="151" height="24" fill="none" viewBox="0 0 151 24"><path fill="#ffc250" d="M16.89 20.284C10.468 22.28.094 20.24 0 11.344-.091 2.45 10.98 7.75 10.98 7.75Z"/><path fill="#ffd064" d="M3.124 6.354c4.483-.768 7.887 5.173 11.654 11.37s13.576 8.652 19.844 3.441c6.267-5.211 8.92-14.338 1.224-19.782S23.347 8.3 16.723 8.638c-6.625.34-6.673-4.584-13.598-2.284"/><circle cx="35.197" cy="11.622" r="1.967" fill="#ffe19d"/><circle cx="31.426" cy="13.097" r="1.476" fill="#ffe19d"/><circle cx="34.05" cy="15.065" r="1.148" fill="#ffe19d"/><path fill="#f7931a" d="M51.109 20V3.2h6.744q2.616 0 3.984 1.224 1.392 1.2 1.392 3.096 0 1.584-.864 2.544a4.2 4.2 0 0 1-2.064 1.272q1.44.288 2.376 1.44.936 1.128.936 2.64 0 1.992-1.44 3.288T58.093 20Zm3.072-9.744h3.216q1.296 0 1.992-.6t.696-1.704q0-1.056-.696-1.656-.672-.624-2.04-.624H54.18Zm0 7.248h3.432q1.368 0 2.112-.624.768-.648.768-1.8 0-1.176-.792-1.848t-2.136-.672H54.18Zm15.14 2.784q-1.536 0-2.52-.48-.984-.504-1.464-1.32a3.5 3.5 0 0 1-.48-1.8q0-1.656 1.296-2.688t3.888-1.032h3.024v-.288q0-1.224-.696-1.8t-1.728-.576q-.936 0-1.632.456-.696.432-.864 1.296h-3q.12-1.296.864-2.256a4.9 4.9 0 0 1 1.968-1.464q1.2-.528 2.688-.528 2.544 0 4.008 1.272t1.464 3.6V20h-2.616l-.288-1.92a4.4 4.4 0 0 1-1.488 1.584q-.936.624-2.424.624m.696-2.4q1.32 0 2.04-.864.744-.864.936-2.136h-2.616q-1.224 0-1.752.456-.528.432-.528 1.08 0 .696.528 1.08t1.392.384M83.25 20q-1.872 0-3-.912t-1.128-3.24v-5.184h-2.04V8.096h2.04l.36-3.192h2.712v3.192h3.216v2.568h-3.216v5.208q0 .864.36 1.2.384.312 1.296.312h1.488V20Zm7.941.288q-1.536 0-2.52-.48-.984-.504-1.464-1.32a3.5 3.5 0 0 1-.48-1.8q0-1.656 1.296-2.688t3.888-1.032h3.024v-.288q0-1.224-.696-1.8t-1.728-.576q-.936 0-1.632.456-.696.432-.864 1.296h-3q.12-1.296.864-2.256a4.9 4.9 0 0 1 1.968-1.464q1.2-.528 2.688-.528 2.544 0 4.008 1.272t1.464 3.6V20H95.39l-.288-1.92a4.4 4.4 0 0 1-1.488 1.584q-.936.624-2.424.624m.696-2.4q1.32 0 2.04-.864.744-.864.936-2.136h-2.616q-1.224 0-1.752.456-.528.432-.528 1.08 0 .696.528 1.08t1.392.384M105.118 20q-1.872 0-3-.912t-1.128-3.24v-5.184h-2.04V8.096h2.04l.36-3.192h2.712v3.192h3.216v2.568h-3.216v5.208q0 .864.36 1.2.384.312 1.296.312h1.488V20Zm7.941.288q-1.536 0-2.52-.48-.984-.504-1.464-1.32a3.5 3.5 0 0 1-.48-1.8q0-1.656 1.296-2.688t3.888-1.032h3.024v-.288q0-1.224-.696-1.8t-1.728-.576q-.936 0-1.632.456-.696.432-.864 1.296h-3q.12-1.296.864-2.256a4.9 4.9 0 0 1 1.968-1.464q1.2-.528 2.688-.528 2.544 0 4.008 1.272t1.464 3.6V20h-2.616l-.288-1.92a4.4 4.4 0 0 1-1.488 1.584q-.936.624-2.424.624m.696-2.4q1.32 0 2.04-.864.744-.864.936-2.136h-2.616q-1.224 0-1.752.456-.528.432-.528 1.08 0 .696.528 1.08t1.392.384m15.148 2.4q-1.344 0-2.352-.504a4.24 4.24 0 0 1-1.632-1.416L124.583 20h-2.736V2.72h3.072V9.8q.576-.792 1.512-1.392.96-.6 2.472-.6 1.68 0 3 .816a5.85 5.85 0 0 1 2.088 2.232q.768 1.416.768 3.216t-.768 3.216a5.9 5.9 0 0 1-2.088 2.208q-1.32.792-3 .792m-.648-2.688q1.464 0 2.424-.984t.96-2.544-.96-2.568-2.424-1.008q-1.488 0-2.448 1.008-.936.984-.936 2.544t.936 2.568q.96.984 2.448.984m9.944-11.352q-.84 0-1.392-.504-.528-.504-.528-1.272t.528-1.248q.552-.504 1.392-.504t1.368.504q.552.48.552 1.248t-.552 1.272q-.528.504-1.368.504M136.663 20V8.096h3.072V20Zm10.623 0q-1.872 0-3-.912t-1.128-3.24v-5.184h-2.04V8.096h2.04l.36-3.192h2.712v3.192h3.216v2.568h-3.216v5.208q0 .864.36 1.2.384.312 1.296.312h1.488V20Z"/></svg>