<svg xmlns="http://www.w3.org/2000/svg" width="64" height="50" fill="none" viewBox="0 0 64 50"><path fill="#ffe9d5" d="M2.376 41.6q-.48 0-.856-.208a1.55 1.55 0 0 1-.576-.584 1.74 1.74 0 0 1-.208-.856q0-.472.208-.848.207-.375.576-.584.375-.216.856-.216.471 0 .84.216.375.208.584.584.208.375.208.848 0 .48-.208.856-.209.368-.584.584a1.7 1.7 0 0 1-.84.208m0-.328q.576 0 .928-.368t.352-.952q0-.576-.352-.944t-.928-.368q-.585 0-.936.368t-.352.944q0 .585.352.952.351.368.936.368m-.664-.48V39.08h.8a.6.6 0 0 1 .424.144.5.5 0 0 1 .16.392q0 .392-.376.504l.448.672h-.496l-.392-.648h-.144v.648Zm.424-.968h.32a.3.3 0 0 0 .152-.04q.064-.048.064-.152 0-.096-.064-.136a.3.3 0 0 0-.152-.04h-.32ZM6.974 44v-5.6h2.112q.873 0 1.32.408t.448 1.024q0 .536-.288.856-.288.313-.696.424.32.064.568.256.255.192.4.48.144.288.144.624 0 .432-.216.784-.207.344-.616.544-.408.2-1 .2Zm.848-3.2h1.16q.489 0 .744-.224.255-.232.256-.632 0-.392-.256-.624-.247-.232-.76-.232H7.822Zm0 2.504h1.216q.513 0 .792-.24.288-.24.288-.672t-.296-.68q-.296-.255-.8-.256h-1.2Zm5.402.792q-.505 0-.832-.168a1.16 1.16 0 0 1-.488-.44 1.2 1.2 0 0 1-.16-.608q0-.576.448-.912.447-.336 1.28-.336h1.04v-.072q0-.464-.256-.696-.249-.232-.648-.232-.352 0-.616.176a.71.71 0 0 0-.312.504h-.848q.039-.432.288-.736.256-.312.64-.472a2.15 2.15 0 0 1 .856-.168q.831 0 1.288.44.456.432.456 1.184V44h-.736l-.072-.68a1.5 1.5 0 0 1-.488.552q-.321.224-.84.224m.168-.688a1 1 0 0 0 .576-.16q.24-.168.368-.44a1.7 1.7 0 0 0 .168-.6h-.944q-.504 0-.72.176a.55.55 0 0 0-.208.44q0 .272.2.432.207.152.56.152m4.542.592q-.583 0-.928-.28-.344-.288-.344-1.016v-1.96h-.68v-.712h.68l.104-1.008h.744v1.008h1.12v.712h-1.12v1.96q0 .328.136.456.144.12.488.12h.456V44Zm2.915.096q-.504 0-.832-.168a1.16 1.16 0 0 1-.488-.44 1.2 1.2 0 0 1-.16-.608q0-.576.448-.912.447-.336 1.28-.336h1.04v-.072q0-.464-.256-.696-.249-.232-.648-.232-.352 0-.616.176a.71.71 0 0 0-.312.504h-.848q.039-.432.288-.736.256-.312.64-.472a2.15 2.15 0 0 1 .856-.168q.831 0 1.288.44.456.432.456 1.184V44h-.736l-.072-.68a1.5 1.5 0 0 1-.488.552q-.321.224-.84.224m.168-.688a1 1 0 0 0 .576-.16q.24-.168.368-.44a1.7 1.7 0 0 0 .168-.6h-.944q-.504 0-.72.176a.55.55 0 0 0-.208.44q0 .272.2.432.207.152.56.152m4.542.592q-.583 0-.928-.28-.344-.288-.344-1.016v-1.96h-.68v-.712h.68l.104-1.008h.744v1.008h1.12v.712h-1.12v1.96q0 .328.136.456.144.12.488.12h.456V44Zm2.915.096q-.505 0-.832-.168a1.16 1.16 0 0 1-.488-.44 1.2 1.2 0 0 1-.16-.608q0-.576.448-.912.447-.336 1.28-.336h1.04v-.072q0-.464-.256-.696-.249-.232-.648-.232-.352 0-.616.176a.71.71 0 0 0-.312.504h-.848q.039-.432.288-.736.256-.312.64-.472a2.15 2.15 0 0 1 .856-.168q.831 0 1.288.44.456.432.456 1.184V44h-.736l-.072-.68a1.5 1.5 0 0 1-.488.552q-.321.224-.84.224m.168-.688a1 1 0 0 0 .576-.16q.24-.168.368-.44a1.7 1.7 0 0 0 .168-.6h-.944q-.504 0-.72.176a.55.55 0 0 0-.208.44q0 .272.2.432.207.152.56.152m5.189.688q-.465 0-.825-.184a1.4 1.4 0 0 1-.56-.52L32.36 44h-.76v-5.76h.848v2.408q.19-.28.527-.496t.865-.216q.575 0 1.016.272.44.272.688.744.255.472.255 1.072t-.256 1.072q-.247.465-.688.736a1.95 1.95 0 0 1-1.024.264m-.145-.736q.545 0 .897-.368.352-.375.352-.976 0-.392-.16-.696a1.2 1.2 0 0 0-.44-.472 1.2 1.2 0 0 0-.648-.176q-.545 0-.896.376-.344.375-.344.968 0 .6.343.976.352.368.897.368m3.51-4.08a.58.58 0 0 1-.4-.144.5.5 0 0 1-.152-.376q0-.224.152-.368a.56.56 0 0 1 .4-.152q.24 0 .392.152.16.144.16.368 0 .225-.16.376a.55.55 0 0 1-.392.144M36.772 44v-3.968h.848V44Zm3.631 0q-.584 0-.928-.28-.345-.288-.344-1.016v-1.96h-.68v-.712h.68l.104-1.008h.744v1.008h1.12v.712h-1.12v1.96q0 .328.136.456.144.12.488.12h.456V44Zm3.506 0v-.608q.545-.432 1.04-.872t.88-.864a4.5 4.5 0 0 0 .616-.84q.224-.416.224-.8 0-.255-.088-.48a.76.76 0 0 0-.288-.368q-.2-.144-.536-.144-.505 0-.76.32a1.18 1.18 0 0 0-.24.768h-.824q.008-.592.248-.992.248-.4.656-.608.416-.208.936-.208.793 0 1.264.448.48.44.48 1.232 0 .472-.232.936-.224.465-.592.896-.36.425-.776.8t-.792.68h2.56V44Zm6.868.096q-.76 0-1.312-.36a2.4 2.4 0 0 1-.84-1.016q-.288-.656-.288-1.52t.288-1.512q.296-.656.84-1.016.552-.368 1.312-.368t1.304.368q.544.36.832 1.016.296.648.296 1.512t-.296 1.52q-.289.648-.832 1.016-.545.36-1.304.36m0-.76q.456 0 .808-.256.36-.255.56-.736.2-.48.2-1.144t-.2-1.144a1.66 1.66 0 0 0-.56-.736 1.34 1.34 0 0 0-.808-.256q-.465 0-.816.256-.352.256-.552.736t-.2 1.144.2 1.144.552.736q.351.255.816.256m3.202.664v-.608q.545-.432 1.04-.872t.88-.864a4.5 4.5 0 0 0 .616-.84q.224-.416.224-.8 0-.255-.088-.48a.76.76 0 0 0-.288-.368q-.2-.144-.536-.144-.504 0-.76.32a1.18 1.18 0 0 0-.24.768h-.824q.009-.592.248-.992.248-.4.656-.608.417-.208.936-.208.792 0 1.264.448.48.44.48 1.232 0 .472-.232.936-.223.465-.592.896-.36.425-.776.8-.415.375-.792.68h2.56V44Zm6.868.096q-.76 0-1.312-.36a2.4 2.4 0 0 1-.84-1.016q-.288-.656-.288-1.52t.288-1.512q.295-.656.84-1.016.552-.368 1.312-.368t1.304.368q.544.36.832 1.016.296.648.296 1.512t-.296 1.52q-.289.648-.832 1.016-.544.36-1.304.36m0-.76q.456 0 .808-.256.36-.255.56-.736.2-.48.2-1.144t-.2-1.144a1.66 1.66 0 0 0-.56-.736 1.34 1.34 0 0 0-.808-.256q-.464 0-.816.256t-.552.736-.2 1.144.2 1.144.552.736q.352.255.816.256"/><path fill="#ffc250" d="M28.89 20.284c-6.423 1.997-16.797-.044-16.89-8.94C11.909 2.45 22.98 7.75 22.98 7.75Z"/><path fill="#ffd064" d="M15.124 6.354c4.483-.768 7.887 5.173 11.654 11.37s13.576 8.652 19.844 3.441c6.267-5.211 8.92-14.338 1.224-19.782S35.348 8.3 28.723 8.638c-6.625.34-6.673-4.584-13.598-2.284"/><circle cx="47.197" cy="11.622" r="1.967" fill="#ffe19d"/><circle cx="43.426" cy="13.097" r="1.476" fill="#ffe19d"/><circle cx="46.05" cy="15.065" r="1.148" fill="#ffe19d"/></svg>